<svg xmlns="http://www.w3.org/2000/svg" viewBox="0 0 500 500"><g id="freepik--puzzle--inject-3"><g id="freepik--puzzle--inject-3"><polygon points="188.95 438.32 188.95 381.03 164.15 366.71 164.15 395.36 139.34 381.03 139.34 352.39 114.54 338.07 114.54 395.36 188.95 438.32" style="fill:#6C63FF"></polygon><polygon points="188.95 438.32 188.95 381.03 164.15 366.71 164.15 395.36 139.34 381.03 139.34 352.39 114.54 338.07 114.54 395.36 188.95 438.32" style="fill:#fff;opacity:0.7000000000000001"></polygon><polygon points="188.95 438.32 213.76 424 213.76 366.71 188.95 381.03 188.95 438.32" style="fill:#6C63FF"></polygon><polygon points="188.95 438.32 213.76 424 213.76 366.71 188.95 381.03 188.95 438.32" style="fill:#fff;opacity:0.55"></polygon><polygon points="114.54 395.36 114.54 366.71 89.73 352.39 89.73 381.03 114.54 395.36" style="fill:#6C63FF"></polygon><polygon points="114.54 395.36 114.54 366.71 89.73 352.39 89.73 381.03 114.54 395.36" style="opacity:0.15"></polygon><polygon points="89.73 381.03 64.93 366.71 64.93 280.79 114.54 309.43 114.54 366.71 89.73 352.39 89.73 381.03" style="fill:#6C63FF"></polygon><polygon points="188.95 381.03 188.95 352.39 164.15 338.07 164.15 366.71 188.95 381.03" style="fill:#6C63FF"></polygon><polygon points="188.95 381.03 188.95 352.39 164.15 338.07 164.15 366.71 188.95 381.03" style="opacity:0.30000000000000004"></polygon><polygon points="188.95 352.39 238.56 323.75 238.56 352.39 288.17 323.75 288.17 352.39 213.76 395.35 213.76 366.71 188.95 381.03 188.95 352.39" style="fill:#6C63FF"></polygon><polygon points="188.95 352.39 238.56 323.75 238.56 352.39 288.17 323.75 288.17 352.39 213.76 395.35 213.76 366.71 188.95 381.03 188.95 352.39" style="opacity:0.45"></polygon><polygon points="288.17 323.75 312.97 309.43 312.98 366.71 213.76 424 213.76 395.35 288.17 352.39 288.17 323.75" style="fill:#6C63FF"></polygon><polygon points="288.17 323.75 312.97 309.43 312.98 366.71 213.76 424 213.76 395.35 288.17 352.39 288.17 323.75" style="fill:#fff;opacity:0.2"></polygon><polygon points="263.37 338.07 263.37 280.79 213.76 309.43 213.76 280.79 188.95 295.11 188.95 352.39 238.56 323.75 238.56 352.39 263.37 338.07" style="fill:#6C63FF"></polygon><polygon points="263.37 338.07 263.37 280.79 213.76 309.43 213.76 280.79 188.95 295.11 188.95 352.39 238.56 323.75 238.56 352.39 263.37 338.07" style="opacity:0.30000000000000004"></polygon><polygon points="188.95 295.11 164.15 280.79 164.15 338.07 188.95 352.39 188.95 295.11" style="fill:#6C63FF"></polygon><polygon points="188.95 295.11 164.15 280.79 164.15 338.07 188.95 352.39 188.95 295.11" style="opacity:0.15"></polygon><polygon points="213.76 280.79 188.95 295.11 164.15 280.79 188.95 266.47 213.76 280.79" style="fill:#6C63FF"></polygon><polygon points="263.37 280.79 238.56 266.47 213.76 280.79 213.76 309.43 263.37 280.79" style="fill:#6C63FF"></polygon><polygon points="139.34 352.39 139.34 323.75 164.15 338.07 164.15 309.43 139.34 295.11 139.34 266.47 114.54 252.15 114.54 280.79 89.73 266.47 89.73 295.11 114.54 309.43 114.54 338.07 139.34 352.39" style="fill:#6C63FF"></polygon><polygon points="139.34 352.39 139.34 323.75 164.15 338.07 164.15 309.43 139.34 295.11 139.34 266.47 114.54 252.15 114.54 280.79 89.73 266.47 89.73 295.11 114.54 309.43 114.54 338.07 139.34 352.39" style="fill:#fff;opacity:0.2"></polygon><polygon points="139.34 266.47 164.15 252.15 139.34 237.82 114.54 252.15 139.34 266.47" style="fill:#6C63FF"></polygon><polygon points="139.34 266.47 164.15 252.15 139.34 237.82 114.54 252.15 139.34 266.47" style="fill:#fff;opacity:0.35000000000000003"></polygon><polygon points="139.34 323.75 164.15 338.07 164.15 395.36 139.34 381.03 139.34 323.75" style="fill:#6C63FF"></polygon><polygon points="139.34 323.75 164.15 338.07 164.15 395.36 139.34 381.03 139.34 323.75" style="fill:#fff;opacity:0.45"></polygon><polygon points="288.17 323.75 288.17 237.82 312.97 223.5 312.97 309.43 288.17 323.75" style="fill:#6C63FF"></polygon><polygon points="288.17 237.82 263.37 223.5 263.36 309.43 288.17 323.75 288.17 237.82" style="fill:#6C63FF"></polygon><polygon points="288.17 237.82 263.37 223.5 263.36 309.43 288.17 323.75 288.17 237.82" style="fill:#fff;opacity:0.15"></polygon><polygon points="312.97 223.5 288.17 209.18 263.37 223.5 288.17 237.82 312.97 223.5" style="fill:#6C63FF"></polygon><polygon points="312.97 223.5 288.17 209.18 263.37 223.5 288.17 237.82 312.97 223.5" style="fill:#fff;opacity:0.30000000000000004"></polygon><polygon points="263.37 338.07 288.17 323.75 263.36 309.43 263.37 338.07" style="fill:#6C63FF"></polygon><polygon points="263.37 338.07 288.17 323.75 263.36 309.43 263.37 338.07" style="opacity:0.6000000000000001"></polygon><polygon points="139.34 266.47 164.15 280.79 213.76 252.15 164.15 223.5 139.34 237.82 164.15 252.15 139.34 266.47" style="fill:#6C63FF"></polygon><polygon points="139.34 266.47 164.15 280.79 213.76 252.15 164.15 223.5 139.34 237.82 164.15 252.15 139.34 266.47" style="opacity:0.15"></polygon><polygon points="139.34 266.47 164.15 280.79 164.15 309.43 139.34 295.11 139.34 266.47" style="fill:#6C63FF"></polygon><polygon points="139.34 266.47 164.15 280.79 164.15 309.43 139.34 295.11 139.34 266.47" style="opacity:0.30000000000000004"></polygon><polygon points="213.76 280.79 213.76 252.15 188.95 266.47 213.76 280.79" style="fill:#6C63FF"></polygon><polygon points="213.76 280.79 213.76 252.15 188.95 266.47 213.76 280.79" style="opacity:0.45"></polygon><polygon points="213.76 252.15 263.37 223.5 263.37 280.79 238.56 266.47 213.76 280.79 213.76 252.15" style="fill:#6C63FF"></polygon><polygon points="213.76 252.15 263.37 223.5 263.37 280.79 238.56 266.47 213.76 280.79 213.76 252.15" style="fill:#fff;opacity:0.55"></polygon><polygon points="263.37 223.5 238.56 209.18 213.75 223.5 188.95 209.18 164.15 223.5 213.76 252.15 263.37 223.5" style="fill:#6C63FF"></polygon><polygon points="263.37 223.5 238.56 209.18 213.75 223.5 188.95 209.18 164.15 223.5 213.76 252.15 263.37 223.5" style="fill:#fff;opacity:0.7000000000000001"></polygon><polygon points="288.17 323.75 263.37 223.5 188.95 266.47 213.76 280.79 238.56 266.47 263.37 280.79 263.36 309.43 288.17 323.75" style="opacity:0.1"></polygon><polygon points="263.37 223.5 263.36 309.43 288.17 323.75 263.37 223.5" style="opacity:0.1"></polygon><polygon points="164.15 223.5 114.54 194.86 64.93 223.5 114.54 252.15 164.15 223.5" style="fill:#6C63FF"></polygon><polygon points="64.93 223.5 64.93 280.79 89.73 295.11 89.73 266.47 114.54 280.79 114.54 252.15 64.93 223.5" style="fill:#6C63FF"></polygon><polygon points="64.93 223.5 64.93 280.79 89.73 295.11 89.73 266.47 114.54 280.79 114.54 252.15 64.93 223.5" style="opacity:0.15"></polygon><polygon points="188.95 209.18 164.15 194.86 139.34 209.18 164.15 223.5 188.95 209.18" style="fill:#6C63FF"></polygon><polygon points="188.95 209.18 164.15 194.86 139.34 209.18 164.15 223.5 188.95 209.18" style="opacity:0.45"></polygon><polygon points="188.95 209.18 213.76 194.86 188.95 180.54 213.76 166.22 188.95 151.9 114.54 194.86 139.34 209.18 164.15 194.86 188.95 209.18" style="fill:#6C63FF"></polygon><polygon points="188.95 209.18 213.76 194.86 188.95 180.54 213.76 166.22 188.95 151.9 114.54 194.86 139.34 209.18 164.15 194.86 188.95 209.18" style="fill:#fff;opacity:0.45"></polygon><polygon points="238.56 180.54 188.95 209.18 213.75 223.5 238.56 209.18 263.37 223.5 288.17 209.18 238.56 180.54" style="fill:#6C63FF"></polygon><polygon points="238.56 180.54 188.95 209.18 213.75 223.5 238.56 209.18 263.37 223.5 288.17 209.18 238.56 180.54" style="opacity:0.15"></polygon><polygon points="213.76 166.22 188.95 180.54 213.76 194.86 238.56 180.54 213.76 166.22" style="fill:#6C63FF"></polygon><path d="M263.37,281.55a.76.76,0,0,0,.76-.76V223.5a.76.76,0,0,0-.11-.37l-1.42.81v56.85A.76.76,0,0,0,263.37,281.55Zm49.22,27.22-24.42,14.1-24.42-14.1a.76.76,0,1,0-.77,1.32l23.66,13.66-47.32,27.32V323.75a.76.76,0,0,0-.38-.66.74.74,0,0,0-.76,0L189,351.51v1.63a.73.73,0,0,0,.38-.09l48.47-28v27.32a.75.75,0,0,0,.38.66.74.74,0,0,0,.76,0l48.47-28V352L214.52,394V367.29a.77.77,0,0,0-.37-.66.76.76,0,0,0-.76,0L189,380.16v1.63a.7.7,0,0,0,.37-.09L213,368.58V424a.67.67,0,0,0,.11.37l1.41-.81V395.8l74-42.75a.75.75,0,0,0,.38-.66v-28.2l24-13.88v-1.63A.73.73,0,0,0,312.59,308.77Zm-99.48-27.61a.74.74,0,0,0,.65.39.76.76,0,0,0,.76-.76V252.15a.8.8,0,0,0-.11-.38l-1.42.82v27.76l.77.44Z" style="fill:#6C63FF"></path><path d="M263.37,281.55a.76.76,0,0,0,.76-.76V223.5a.76.76,0,0,0-.11-.37l-1.42.81v56.85A.76.76,0,0,0,263.37,281.55Zm49.22,27.22-24.42,14.1-24.42-14.1a.76.76,0,1,0-.77,1.32l23.66,13.66-47.32,27.32V323.75a.76.76,0,0,0-.38-.66.74.74,0,0,0-.76,0L189,351.51v1.63a.73.73,0,0,0,.38-.09l48.47-28v27.32a.75.75,0,0,0,.38.66.74.74,0,0,0,.76,0l48.47-28V352L214.52,394V367.29a.77.77,0,0,0-.37-.66.76.76,0,0,0-.76,0L189,380.16v1.63a.7.7,0,0,0,.37-.09L213,368.58V424a.67.67,0,0,0,.11.37l1.41-.81V395.8l74-42.75a.75.75,0,0,0,.38-.66v-28.2l24-13.88v-1.63A.73.73,0,0,0,312.59,308.77Zm-99.48-27.61a.74.74,0,0,0,.65.39.76.76,0,0,0,.76-.76V252.15a.8.8,0,0,0-.11-.38l-1.42.82v27.76l.77.44Z" style="opacity:0.75"></path><path d="M164.91,366.27V339.39l23.66,13.66a.73.73,0,0,0,.38.09v-1.63l-24-13.88V309.44h0v-28.2l-1.41-.82a.71.71,0,0,0-.12.38v27.32l-23.27-13.44V266.91l-1.42-.82a.8.8,0,0,0-.11.38v28.64a.78.78,0,0,0,.38.66l24.42,14.1v26.88l-23.67-13.66a.74.74,0,0,0-.76,0,.78.78,0,0,0-.38.66v27.32L115.3,337.63v-28.2a.76.76,0,0,0-.38-.66L90.5,294.67V267.79l23.66,13.66a.74.74,0,0,0,.76,0,.76.76,0,0,0,.38-.66v-28.2l-1.41-.82a.7.7,0,0,0-.11.38v27.32L90.11,265.81a.74.74,0,0,0-.76,0,.76.76,0,0,0-.38.66v27.32L65.31,280.13a.73.73,0,0,0-.38-.09v1.63l48.85,28.2v55.52L90.12,351.73a.76.76,0,0,0-.77,0,.78.78,0,0,0-.38.66v28.2l1.42.82a.8.8,0,0,0,.11-.38V353.71l23.28,13.44v27.76l1.41.82a.8.8,0,0,0,.11-.38v-56l23.28,13.44V381a.79.79,0,0,0,.38.67L163.77,396h0a.9.9,0,0,0,.33.09h0a.9.9,0,0,0,.33-.09h0l.05,0a.85.85,0,0,0,.19-.19.35.35,0,0,1,0-.08.79.79,0,0,0,.09-.35V368l23.66,13.66a.73.73,0,0,0,.38.09v-1.64ZM163.39,394l-23.28-13.44v-28.2h0V325.07l23.28,13.44V394Z" style="fill:#6C63FF"></path><path d="M164.91,366.27V339.39l23.66,13.66a.73.73,0,0,0,.38.09v-1.63l-24-13.88V309.44h0v-28.2l-1.41-.82a.71.71,0,0,0-.12.38v27.32l-23.27-13.44V266.91l-1.42-.82a.8.8,0,0,0-.11.38v28.64a.78.78,0,0,0,.38.66l24.42,14.1v26.88l-23.67-13.66a.74.74,0,0,0-.76,0,.78.78,0,0,0-.38.66v27.32L115.3,337.63v-28.2a.76.76,0,0,0-.38-.66L90.5,294.67V267.79l23.66,13.66a.74.74,0,0,0,.76,0,.76.76,0,0,0,.38-.66v-28.2l-1.41-.82a.7.7,0,0,0-.11.38v27.32L90.11,265.81a.74.74,0,0,0-.76,0,.76.76,0,0,0-.38.66v27.32L65.31,280.13a.73.73,0,0,0-.38-.09v1.63l48.85,28.2v55.52L90.12,351.73a.76.76,0,0,0-.77,0,.78.78,0,0,0-.38.66v28.2l1.42.82a.8.8,0,0,0,.11-.38V353.71l23.28,13.44v27.76l1.41.82a.8.8,0,0,0,.11-.38v-56l23.28,13.44V381a.79.79,0,0,0,.38.67L163.77,396h0a.9.9,0,0,0,.33.09h0a.9.9,0,0,0,.33-.09h0l.05,0a.85.85,0,0,0,.19-.19.35.35,0,0,1,0-.08.79.79,0,0,0,.09-.35V368l23.66,13.66a.73.73,0,0,0,.38.09v-1.64ZM163.39,394l-23.28-13.44v-28.2h0V325.07l23.28,13.44V394Z" style="opacity:0.65"></path><path d="M287.42,208.75l-24.05,13.87-24.43-14.1a.79.79,0,0,0-.76,0l-24.42,14.1-23.28-13.44,23.66-13.66L239.33,181l-1.53-.89-24,13.88-23.28-13.44,23.66-13.66a.8.8,0,0,0,.27-.28l-1.42-.82-24.42,14.1a.76.76,0,0,0-.38.66.75.75,0,0,0,.38.66l23.66,13.66L189,208.3l-24.42-14.1a.74.74,0,0,0-.76,0l-24.43,14.1-24-13.88-1.41.82a.72.72,0,0,0,.27.28l23.74,13.71,24.72,14.27L139,237.16h0l-24.8,14.33a.66.66,0,0,0-.27.28l1.41.82,24-13.88,23.28,13.44L139,265.81a.8.8,0,0,0-.27.28l1.42.82,24.42-14.1a.76.76,0,0,0,.38-.66.74.74,0,0,0-.38-.66l-23.66-13.66,23.28-13.44,48.08,27.76-48.46,28a.72.72,0,0,0-.27.28l1.41.82,49.22-28.42h0l0,0,.12-.11.1-.11,0,0,0-.09a.88.88,0,0,0,.05-.15.66.66,0,0,0,0-.14.76.76,0,0,0,0-.15.58.58,0,0,0-.05-.14.94.94,0,0,0,0-.09l0,0-.1-.11a.53.53,0,0,0-.12-.1s0,0,0,0l-48.47-28L189,210.06l24.42,14.1a.76.76,0,0,0,.77,0l24.42-14.1L263,224.17h0a1,1,0,0,0,.29.08l.08,0h0l.08,0a1,1,0,0,0,.29-.08h0l24.8-14.33a.73.73,0,0,0,.28-.27ZM164.15,222.62l-23.28-13.44,23.28-13.44,23.28,13.44Z" style="fill:#6C63FF"></path><path d="M287.42,208.75l-24.05,13.87-24.43-14.1a.79.79,0,0,0-.76,0l-24.42,14.1-23.28-13.44,23.66-13.66L239.33,181l-1.53-.89-24,13.88-23.28-13.44,23.66-13.66a.8.8,0,0,0,.27-.28l-1.42-.82-24.42,14.1a.76.76,0,0,0-.38.66.75.75,0,0,0,.38.66l23.66,13.66L189,208.3l-24.42-14.1a.74.74,0,0,0-.76,0l-24.43,14.1-24-13.88-1.41.82a.72.72,0,0,0,.27.28l23.74,13.71,24.72,14.27L139,237.16h0l-24.8,14.33a.66.66,0,0,0-.27.28l1.41.82,24-13.88,23.28,13.44L139,265.81a.8.8,0,0,0-.27.28l1.42.82,24.42-14.1a.76.76,0,0,0,.38-.66.74.74,0,0,0-.38-.66l-23.66-13.66,23.28-13.44,48.08,27.76-48.46,28a.72.72,0,0,0-.27.28l1.41.82,49.22-28.42h0l0,0,.12-.11.1-.11,0,0,0-.09a.88.88,0,0,0,.05-.15.66.66,0,0,0,0-.14.76.76,0,0,0,0-.15.58.58,0,0,0-.05-.14.94.94,0,0,0,0-.09l0,0-.1-.11a.53.53,0,0,0-.12-.1s0,0,0,0l-48.47-28L189,210.06l24.42,14.1a.76.76,0,0,0,.77,0l24.42-14.1L263,224.17h0a1,1,0,0,0,.29.08l.08,0h0l.08,0a1,1,0,0,0,.29-.08h0l24.8-14.33a.73.73,0,0,0,.28-.27ZM164.15,222.62l-23.28-13.44,23.28-13.44,23.28,13.44Z" style="opacity:0.55"></path><polygon points="188.95 438.32 188.95 295.11 213.76 280.79 213.76 309.43 263.37 280.79 263.37 338.07 288.17 323.75 288.17 237.82 312.97 223.5 312.98 366.71 188.95 438.32" style="opacity:0.1"></polygon><polygon points="188.95 295.11 64.93 223.5 188.95 151.9 312.97 223.5 288.17 237.82 263.37 223.5 188.95 266.47 213.76 280.79 188.95 295.11" style="fill:#fff;opacity:0.2"></polygon><polygon points="64.93 223.5 188.12 295.77 188.95 438.32 189.81 295.86 213.76 280.79 188.95 293.93 64.93 223.5" style="fill:#fff;opacity:0.2"></polygon></g><path id="freepik--missing-piece--inject-3" d="M206,256l-2.66,1.53a.52.52,0,0,0,.26,1,.48.48,0,0,0,.26-.07l2.66-1.53a.52.52,0,1,0-.52-.9Zm-15.23,9.39a.52.52,0,0,0-.71-.19l-1.35.78a.51.51,0,0,0-.26.45.54.54,0,0,0,.26.45l1.35.78a.59.59,0,0,0,.26.07.52.52,0,0,0,.45-.26.51.51,0,0,0-.19-.71l-.57-.33.57-.33A.51.51,0,0,0,190.75,265.43Zm19.46,12.71-2.45-1.42a.52.52,0,0,0-.71.19.51.51,0,0,0,.19.71l2.45,1.42a.48.48,0,0,0,.26.07.5.5,0,0,0,.45-.26A.52.52,0,0,0,210.21,278.14Zm-4.91-2.84-2.46-1.41a.52.52,0,1,0-.52.9l2.46,1.41a.48.48,0,0,0,.26.07.52.52,0,0,0,.45-.26A.53.53,0,0,0,205.3,275.3Zm6.7-22.14a.52.52,0,0,0-.71-.19l-2.66,1.53a.53.53,0,0,0-.19.71.53.53,0,0,0,.45.26.48.48,0,0,0,.26-.07l2.66-1.53A.52.52,0,0,0,212,253.16Zm-16.65,9-2.65,1.53a.52.52,0,0,0-.19.71.5.5,0,0,0,.45.26.48.48,0,0,0,.26-.07l2.65-1.53a.51.51,0,0,0,.19-.71A.52.52,0,0,0,195.35,262.17Zm.12,7.46L193,268.21a.53.53,0,0,0-.71.19.52.52,0,0,0,.19.71l2.45,1.42a.54.54,0,0,0,.26.07.5.5,0,0,0,.45-.26A.51.51,0,0,0,195.47,269.63Zm4.92,2.84-2.46-1.42a.52.52,0,0,0-.52.9l2.46,1.42a.48.48,0,0,0,.26.07.52.52,0,0,0,.45-.26A.53.53,0,0,0,200.39,272.47Zm.28-13.37L198,260.64a.52.52,0,0,0-.19.71.54.54,0,0,0,.45.26.59.59,0,0,0,.26-.07l2.66-1.54a.52.52,0,1,0-.52-.9Zm12.57,23.25a.52.52,0,0,0,.52.52.53.53,0,0,0,.52-.52v-1.26l1.09-.63a.53.53,0,0,0,.19-.71.52.52,0,0,0-.71-.19l-1.09.63-1.09-.63a.52.52,0,0,0-.71.19.51.51,0,0,0,.19.71l1.09.63Zm1,14.18a.52.52,0,0,0-.52-.52.52.52,0,0,0-.52.52v2.83a.52.52,0,0,0,.52.52.52.52,0,0,0,.52-.52Zm3-46.44a.52.52,0,0,0-.71-.19L214,251.44a.51.51,0,0,0-.19.71.52.52,0,0,0,.45.26.63.63,0,0,0,.26-.07l2.65-1.54A.51.51,0,0,0,217.31,250.09Zm.71,28.84,2.66-1.54a.52.52,0,0,0-.52-.9L217.5,278a.53.53,0,0,0-.19.71.52.52,0,0,0,.45.26A.58.58,0,0,0,218,278.93Zm4.6-31.9a.51.51,0,0,0-.71-.19l-2.65,1.53a.52.52,0,0,0,.26,1,.48.48,0,0,0,.26-.07l2.65-1.53A.52.52,0,0,0,222.62,247Zm-2.26,58-2.75,1.6a.51.51,0,0,0-.19.71.52.52,0,0,0,.45.26.68.68,0,0,0,.26-.07l2.75-1.6a.51.51,0,0,0,.19-.71A.52.52,0,0,0,220.36,305Zm-6.6-20.35a.52.52,0,0,0-.52.52V288a.52.52,0,0,0,.52.52.52.52,0,0,0,.52-.52v-2.84A.53.53,0,0,0,213.76,284.66Zm0,17a.52.52,0,0,0-.52.52V305a.52.52,0,0,0,.52.52.52.52,0,0,0,.52-.52V302.2A.52.52,0,0,0,213.76,301.68Zm1.09,6.52-.57.33v-.66a.52.52,0,0,0-.52-.52.52.52,0,0,0-.52.52v1.56a.52.52,0,0,0,.26.45.52.52,0,0,0,.52,0l1.35-.78a.53.53,0,0,0,.19-.71A.52.52,0,0,0,214.85,308.2Zm-1.09-14a.52.52,0,0,0,.52-.52v-2.84a.53.53,0,0,0-.52-.52.52.52,0,0,0-.52.52v2.84A.52.52,0,0,0,213.76,294.21ZM271.82,229l2.46,1.42a.59.59,0,0,0,.26.07.54.54,0,0,0,.45-.26.52.52,0,0,0-.19-.71l-2.46-1.42a.53.53,0,0,0-.71.19A.53.53,0,0,0,271.82,229Zm9.83,5.67,2.45,1.42a.63.63,0,0,0,.26.07.52.52,0,0,0,.45-.26.51.51,0,0,0-.19-.71l-2.45-1.42a.52.52,0,0,0-.52.9Zm6,35.39a.52.52,0,0,0,1,0V267a.52.52,0,0,0-1,0Zm0,12.27a.52.52,0,0,0,1,0v-3.07a.52.52,0,0,0-1,0Zm-64.32-6.46,2.66-1.54a.52.52,0,0,0-.52-.9L222.81,275a.53.53,0,0,0-.19.71.55.55,0,0,0,.45.26A.59.59,0,0,0,223.33,275.86Zm53.41-44,2.45,1.42a.48.48,0,0,0,.26.07.5.5,0,0,0,.45-.26.52.52,0,0,0-.19-.71l-2.45-1.42a.53.53,0,0,0-.71.19A.51.51,0,0,0,276.74,231.82Zm-20-3.95a.48.48,0,0,0,.26-.07l2.66-1.53a.52.52,0,0,0,.19-.71.51.51,0,0,0-.71-.19l-2.66,1.53a.53.53,0,0,0-.19.71A.52.52,0,0,0,256.7,227.87Zm30.95,23.78a.52.52,0,0,0,1,0v-3.07a.52.52,0,1,0-1,0Zm0,6.14a.52.52,0,0,0,1,0v-3.07a.52.52,0,1,0-1,0Zm0,6.13a.52.52,0,0,0,1,0v-3.07a.52.52,0,0,0-1,0Zm.52-17.88a.52.52,0,0,0,.52-.52v-3.07a.52.52,0,1,0-1,0v3.07A.52.52,0,0,0,288.17,246Zm-24.8,43.2a.52.52,0,0,0,.52-.52v-3.19a.53.53,0,0,0-.52-.52.52.52,0,0,0-.52.52v3.19A.52.52,0,0,0,263.37,289.24Zm3.54-63.09,2.46,1.42a.48.48,0,0,0,.26.07.52.52,0,0,0,.45-.26.53.53,0,0,0-.19-.71l-2.46-1.42a.52.52,0,1,0-.52.9Zm-4.06,75.31a.52.52,0,0,0,.52.52.52.52,0,0,0,.52-.52v-3.18a.52.52,0,0,0-.52-.52.52.52,0,0,0-.52.52Zm1,9.56a.53.53,0,0,0-.52-.52.52.52,0,0,0-.52.52v3.19a.52.52,0,0,0,.52.52.52.52,0,0,0,.52-.52Zm-1-15.93a.52.52,0,0,0,.52.52.52.52,0,0,0,.52-.52v-3.18a.52.52,0,0,0-.52-.52.52.52,0,0,0-.52.52Zm1,22.31a.52.52,0,0,0-.52-.52.52.52,0,0,0-.52.52v3.18a.52.52,0,0,0,.52.52.52.52,0,0,0,.52-.52Zm-1.61-92.67,1.09-.63,1.09.63a.47.47,0,0,0,.25.07.52.52,0,0,0,.27-1l-1.35-.78a.53.53,0,0,0-.52,0l-1.35.78a.52.52,0,1,0,.52.9Zm1.61,99a.52.52,0,0,0-.52-.52.52.52,0,0,0-.52.52V327a.52.52,0,0,0,.52.52.52.52,0,0,0,.52-.52Zm-.52,5.85a.52.52,0,0,0-.52.52v3.19a.52.52,0,0,0,.52.52.53.53,0,0,0,.52-.52v-3.19A.52.52,0,0,0,263.37,329.62Zm24.28-53.43a.52.52,0,0,0,1,0v-3.07a.52.52,0,0,0-1,0ZM274,246a.52.52,0,0,0-.71-.19l-2.66,1.54a.51.51,0,0,0,.26,1,.48.48,0,0,0,.26-.07l2.66-1.53A.52.52,0,0,0,274,246Zm.29,85.16-2.46,1.42a.52.52,0,0,0,.27,1,.47.47,0,0,0,.25-.07l2.46-1.42a.52.52,0,1,0-.52-.9Zm7.49-89.05,2.65-1.53a.51.51,0,0,0,.19-.71.52.52,0,0,0-.71-.19l-2.65,1.53a.52.52,0,0,0-.19.71.5.5,0,0,0,.45.26A.48.48,0,0,0,281.77,242.12Zm-2.58,86.21-2.45,1.42a.51.51,0,0,0-.19.71.52.52,0,0,0,.71.19l2.45-1.42a.51.51,0,0,0,.19-.71A.52.52,0,0,0,279.19,328.33Zm.11-85.39a.53.53,0,0,0-.71-.19l-2.65,1.54a.51.51,0,0,0-.19.71.52.52,0,0,0,.45.26.54.54,0,0,0,.26-.07l2.65-1.54A.52.52,0,0,0,279.3,242.94ZM269.37,334l-2.46,1.41a.53.53,0,0,0-.19.71.52.52,0,0,0,.45.26.48.48,0,0,0,.26-.07l2.46-1.41a.53.53,0,0,0,.19-.71A.51.51,0,0,0,269.37,334Zm-4.91,2.83-.57.33v-.66a.53.53,0,0,0-.52-.52.52.52,0,0,0-.52.52v1.56a.51.51,0,0,0,.26.45.52.52,0,0,0,.52,0l1.35-.78a.52.52,0,0,0-.52-.9Zm-1.09-28.48a.53.53,0,0,0,.52-.52v-3.19a.52.52,0,0,0-.52-.52.52.52,0,0,0-.52.52v3.19A.52.52,0,0,0,263.37,308.36Zm5.31-59.28a.52.52,0,0,0-.71-.19l-2.66,1.53a.52.52,0,0,0-.19.71.52.52,0,0,0,.45.26.48.48,0,0,0,.26-.07l2.66-1.53A.52.52,0,0,0,268.68,249.08Zm19.49,66.46a.52.52,0,0,0-.52.52v3.07a.52.52,0,0,0,1,0v-3.07A.52.52,0,0,0,288.17,315.54Zm0-12.27a.52.52,0,0,0-.52.52v3.07a.52.52,0,0,0,1,0v-3.07A.52.52,0,0,0,288.17,303.27Zm0-12.27a.52.52,0,0,0-.52.52v3.07a.52.52,0,1,0,1,0v-3.07A.52.52,0,0,0,288.17,291Zm0,6.14a.52.52,0,0,0-.52.52v3.06a.52.52,0,0,0,1,0v-3.06A.52.52,0,0,0,288.17,297.14ZM284.1,325.5l-2.45,1.42a.52.52,0,0,0-.19.71.54.54,0,0,0,.45.26.59.59,0,0,0,.26-.07l2.45-1.42a.52.52,0,0,0-.52-.9Zm4.07-40.63a.52.52,0,0,0-.52.52v3.07a.52.52,0,1,0,1,0v-3.07A.52.52,0,0,0,288.17,284.87Zm-1.8-46a.59.59,0,0,0,.17.18l.07,0a.47.47,0,0,0,.16,0h.08a.48.48,0,0,0,.23-.07l.57-.32v.65a.52.52,0,1,0,1,0v-1.55a.51.51,0,0,0-.26-.45l-1.35-.78a.51.51,0,0,0-.71.19.53.53,0,0,0,.19.71l.57.33-.57.32A.53.53,0,0,0,286.37,238.86Zm1.8,70.54a.52.52,0,0,0-.52.52V313a.52.52,0,0,0,1,0v-3.07A.52.52,0,0,0,288.17,309.4Zm0,12.27a.52.52,0,0,0-.52.52v1.26l-1.09.63a.52.52,0,0,0,.26,1,.48.48,0,0,0,.26-.07l1.35-.78a.51.51,0,0,0,.26-.45v-1.56A.52.52,0,0,0,288.17,321.67Zm-25.32-39.32a.52.52,0,0,0,.52.52.53.53,0,0,0,.52-.52v-1.56a.51.51,0,0,0-.26-.45.53.53,0,0,0-.52,0l-1.35.78a.51.51,0,0,0-.19.71.52.52,0,0,0,.71.19l.57-.33Zm-15.42-21a.52.52,0,0,0-.71-.19l-2.66,1.53a.52.52,0,0,0,.26,1,.48.48,0,0,0,.26-.07l2.66-1.53A.52.52,0,0,0,247.43,261.35Zm-10.51,34.11-2.76,1.59a.52.52,0,0,0,.26,1,.48.48,0,0,0,.26-.07l2.76-1.59a.53.53,0,0,0,.19-.71A.51.51,0,0,0,236.92,295.46Zm1.64-57.63a.51.51,0,0,0-.71-.19l-2.65,1.53a.51.51,0,0,0-.19.71.52.52,0,0,0,.45.26.54.54,0,0,0,.26-.07l2.65-1.54A.51.51,0,0,0,238.56,237.83Zm3.56,26.58a.53.53,0,0,0-.71-.19l-2.66,1.54a.52.52,0,0,0-.19.71.54.54,0,0,0,.45.26.59.59,0,0,0,.26-.07l2.66-1.54A.53.53,0,0,0,242.12,264.41Zm-5.51,3.78a.52.52,0,1,0-.51-.9l-2.66,1.53a.52.52,0,0,0-.19.71.52.52,0,0,0,.45.26.48.48,0,0,0,.26-.07Zm-5.21,30.45-2.76,1.59a.53.53,0,0,0-.19.71.52.52,0,0,0,.45.26.58.58,0,0,0,.26-.06l2.76-1.6a.51.51,0,0,0,.19-.71A.52.52,0,0,0,231.4,298.64Zm-.1-27.38a.51.51,0,0,0,.19-.71.52.52,0,0,0-.71-.19l-2.65,1.53a.51.51,0,0,0-.19.71.52.52,0,0,0,.71.19ZM227.94,244a.51.51,0,0,0-.71-.19l-2.66,1.53a.52.52,0,0,0-.19.71.52.52,0,0,0,.45.26.48.48,0,0,0,.26-.07l2.66-1.53A.53.53,0,0,0,227.94,244Zm35.43,8.19a.52.52,0,0,0-.71-.19L260,253.49a.52.52,0,0,0,.26,1,.48.48,0,0,0,.26-.07l2.66-1.53A.53.53,0,0,0,263.37,252.15Zm-20.93,40.12-2.76,1.59a.52.52,0,0,0-.19.71.52.52,0,0,0,.45.26.48.48,0,0,0,.26-.07l2.76-1.59a.52.52,0,0,0-.52-.9Zm-9.19-51.38a.52.52,0,0,0-.71-.19l-2.66,1.54a.53.53,0,0,0-.19.71.54.54,0,0,0,.45.26.59.59,0,0,0,.26-.07l2.66-1.54A.52.52,0,0,0,233.25,240.89Zm24.8,14.32a.52.52,0,0,0-.71-.19l-2.65,1.54a.51.51,0,0,0-.19.71.52.52,0,0,0,.45.26.59.59,0,0,0,.26-.07l2.65-1.54A.51.51,0,0,0,258.05,255.21Zm-4.57,30.69-2.76,1.59a.52.52,0,0,0-.19.71.5.5,0,0,0,.45.26.48.48,0,0,0,.26-.07L254,286.8a.52.52,0,0,0-.52-.9Zm1-57.28a.53.53,0,0,0-.71-.19L251.13,230a.52.52,0,0,0-.19.71.54.54,0,0,0,.45.26.59.59,0,0,0,.26-.07l2.66-1.54A.52.52,0,0,0,254.5,228.62Zm4.5,54.09-2.76,1.59a.51.51,0,0,0-.19.71.52.52,0,0,0,.71.19l2.76-1.59a.52.52,0,1,0-.52-.9Zm-15.13-47.95a.52.52,0,0,0-.71-.19l-2.65,1.53a.51.51,0,0,0-.19.71.52.52,0,0,0,.71.19l2.65-1.53A.51.51,0,0,0,243.87,234.76Zm8.87,23.52a.52.52,0,0,0-.71-.19l-2.65,1.53a.51.51,0,0,0-.19.71.5.5,0,0,0,.45.26.54.54,0,0,0,.26-.07l2.65-1.53A.52.52,0,0,0,252.74,258.28ZM248,289.08l-2.76,1.6a.52.52,0,0,0-.19.71.54.54,0,0,0,.45.26.59.59,0,0,0,.26-.07l2.76-1.6a.52.52,0,1,0-.52-.9Zm-22.08,12.75-2.76,1.59a.52.52,0,0,0,.27,1,.47.47,0,0,0,.25-.07l2.76-1.59a.52.52,0,0,0-.52-.9Zm23.31-70.14a.53.53,0,0,0-.71-.19L245.82,233a.53.53,0,0,0-.19.71.52.52,0,0,0,.45.26.48.48,0,0,0,.26-.07L249,232.4A.53.53,0,0,0,249.19,231.69Z" style="fill:#fafafa"></path></g></svg>
